<?xml version="1.0" encoding="UTF-8" standalone="no"?>
<!-- Created with Inkscape (http://www.inkscape.org/) -->

<svg
   xmlns:dc="http://purl.org/dc/elements/1.1/"
   xmlns:cc="http://creativecommons.org/ns#"
   xmlns:rdf="http://www.w3.org/1999/02/22-rdf-syntax-ns#"
   xmlns:svg="http://www.w3.org/2000/svg"
   xmlns="http://www.w3.org/2000/svg"
   xmlns:sodipodi="http://sodipodi.sourceforge.net/DTD/sodipodi-0.dtd"
   xmlns:inkscape="http://www.inkscape.org/namespaces/inkscape"
   id="svg2"
   height="744.09448"
   width="1052.3622"
   version="1.1"
   inkscape:version="0.48.2 r9819"
   sodipodi:docname="The MagPi Logo TM.svg">
  <sodipodi:namedview
     pagecolor="#ffffff"
     bordercolor="#666666"
     borderopacity="1"
     objecttolerance="10"
     gridtolerance="10"
     guidetolerance="10"
     inkscape:pageopacity="0"
     inkscape:pageshadow="2"
     inkscape:window-width="1920"
     inkscape:window-height="982"
     id="namedview96"
     showgrid="false"
     inkscape:zoom="0.89707533"
     inkscape:cx="581.65959"
     inkscape:cy="415.53255"
     inkscape:window-x="-11"
     inkscape:window-y="-11"
     inkscape:window-maximized="1"
     inkscape:current-layer="flowRoot2985" />
  <defs
     id="defs4">
    <filter
       id="filter4238"
       height="1.5"
       width="1.5"
       color-interpolation-filters="sRGB"
       y="-0.25"
       x="-0.25">
      <feGaussianBlur
         id="feGaussianBlur4240"
         result="blur"
         stdDeviation="2"
         in="SourceAlpha" />
      <feColorMatrix
         id="feColorMatrix4242"
         values="1 0 0 0 0 0 1 0 0 0 0 0 1 0 0 0 0 0 0.6 0 "
         type="matrix"
         result="bluralpha" />
      <feOffset
         id="feOffset4244"
         result="offsetBlur"
         dy="-4"
         dx="4"
         in="bluralpha" />
      <feMerge
         id="feMerge4246">
        <feMergeNode
           id="feMergeNode4248"
           in="offsetBlur" />
        <feMergeNode
           id="feMergeNode4250"
           in="SourceGraphic" />
      </feMerge>
    </filter>
    <filter
       id="filter4252"
       height="1.5"
       width="1.5"
       color-interpolation-filters="sRGB"
       y="-0.25"
       x="-0.25">
      <feGaussianBlur
         id="feGaussianBlur4254"
         result="blur"
         stdDeviation="2"
         in="SourceAlpha" />
      <feColorMatrix
         id="feColorMatrix4256"
         values="1 0 0 0 0 0 1 0 0 0 0 0 1 0 0 0 0 0 0.6 0 "
         type="matrix"
         result="bluralpha" />
      <feOffset
         id="feOffset4258"
         result="offsetBlur"
         dy="-4"
         dx="4"
         in="bluralpha" />
      <feMerge
         id="feMerge4260">
        <feMergeNode
           id="feMergeNode4262"
           in="offsetBlur" />
        <feMergeNode
           id="feMergeNode4264"
           in="SourceGraphic" />
      </feMerge>
    </filter>
    <filter
       id="filter4266"
       height="1.5"
       width="1.5"
       color-interpolation-filters="sRGB"
       y="-0.25"
       x="-0.25">
      <feGaussianBlur
         id="feGaussianBlur4268"
         result="blur"
         stdDeviation="2"
         in="SourceAlpha" />
      <feColorMatrix
         id="feColorMatrix4270"
         values="1 0 0 0 0 0 1 0 0 0 0 0 1 0 0 0 0 0 0.6 0 "
         type="matrix"
         result="bluralpha" />
      <feOffset
         id="feOffset4272"
         result="offsetBlur"
         dy="-4"
         dx="4"
         in="bluralpha" />
      <feMerge
         id="feMerge4274">
        <feMergeNode
           id="feMergeNode4276"
           in="offsetBlur" />
        <feMergeNode
           id="feMergeNode4278"
           in="SourceGraphic" />
      </feMerge>
    </filter>
    <filter
       id="filter4280"
       height="1.5"
       width="1.5"
       color-interpolation-filters="sRGB"
       y="-0.25"
       x="-0.25">
      <feGaussianBlur
         id="feGaussianBlur4282"
         result="blur"
         stdDeviation="2"
         in="SourceAlpha" />
      <feColorMatrix
         id="feColorMatrix4284"
         values="1 0 0 0 0 0 1 0 0 0 0 0 1 0 0 0 0 0 0.6 0 "
         type="matrix"
         result="bluralpha" />
      <feOffset
         id="feOffset4286"
         result="offsetBlur"
         dy="-4"
         dx="4"
         in="bluralpha" />
      <feMerge
         id="feMerge4288">
        <feMergeNode
           id="feMergeNode4290"
           in="offsetBlur" />
        <feMergeNode
           id="feMergeNode4292"
           in="SourceGraphic" />
      </feMerge>
    </filter>
    <filter
       id="filter4294"
       height="1.5"
       width="1.5"
       color-interpolation-filters="sRGB"
       y="-0.25"
       x="-0.25">
      <feGaussianBlur
         id="feGaussianBlur4296"
         result="blur"
         stdDeviation="2"
         in="SourceAlpha" />
      <feColorMatrix
         id="feColorMatrix4298"
         values="1 0 0 0 0 0 1 0 0 0 0 0 1 0 0 0 0 0 0.6 0 "
         type="matrix"
         result="bluralpha" />
      <feOffset
         id="feOffset4300"
         result="offsetBlur"
         dy="-4"
         dx="4"
         in="bluralpha" />
      <feMerge
         id="feMerge4302">
        <feMergeNode
           id="feMergeNode4304"
           in="offsetBlur" />
        <feMergeNode
           id="feMergeNode4306"
           in="SourceGraphic" />
      </feMerge>
    </filter>
    <filter
       id="filter4308"
       height="1.5"
       width="1.5"
       color-interpolation-filters="sRGB"
       y="-0.25"
       x="-0.25">
      <feGaussianBlur
         id="feGaussianBlur4310"
         result="blur"
         stdDeviation="2"
         in="SourceAlpha" />
      <feColorMatrix
         id="feColorMatrix4312"
         values="1 0 0 0 0 0 1 0 0 0 0 0 1 0 0 0 0 0 0.6 0 "
         type="matrix"
         result="bluralpha" />
      <feOffset
         id="feOffset4314"
         result="offsetBlur"
         dy="-4"
         dx="4"
         in="bluralpha" />
      <feMerge
         id="feMerge4316">
        <feMergeNode
           id="feMergeNode4318"
           in="offsetBlur" />
        <feMergeNode
           id="feMergeNode4320"
           in="SourceGraphic" />
      </feMerge>
    </filter>
    <filter
       id="filter4337"
       height="1.5"
       width="1.5"
       color-interpolation-filters="sRGB"
       y="-0.25"
       x="-0.25">
      <feGaussianBlur
         id="feGaussianBlur4339"
         result="blur"
         stdDeviation="2"
         in="SourceAlpha" />
      <feColorMatrix
         id="feColorMatrix4341"
         values="1 0 0 0 0 0 1 0 0 0 0 0 1 0 0 0 0 0 0.6 0 "
         type="matrix"
         result="bluralpha" />
      <feOffset
         id="feOffset4343"
         result="offsetBlur"
         dy="-4"
         dx="4"
         in="bluralpha" />
      <feMerge
         id="feMerge4345">
        <feMergeNode
           id="feMergeNode4347"
           in="offsetBlur" />
        <feMergeNode
           id="feMergeNode4349"
           in="SourceGraphic" />
      </feMerge>
    </filter>
    <filter
       id="filter4351"
       height="1.5"
       width="1.5"
       color-interpolation-filters="sRGB"
       y="-0.25"
       x="-0.25">
      <feGaussianBlur
         id="feGaussianBlur4353"
         result="blur"
         stdDeviation="2"
         in="SourceAlpha" />
      <feColorMatrix
         id="feColorMatrix4355"
         values="1 0 0 0 0 0 1 0 0 0 0 0 1 0 0 0 0 0 0.6 0 "
         type="matrix"
         result="bluralpha" />
      <feOffset
         id="feOffset4357"
         result="offsetBlur"
         dy="-4"
         dx="4"
         in="bluralpha" />
      <feMerge
         id="feMerge4359">
        <feMergeNode
           id="feMergeNode4361"
           in="offsetBlur" />
        <feMergeNode
           id="feMergeNode4363"
           in="SourceGraphic" />
      </feMerge>
    </filter>
    <filter
       id="filter4365"
       height="1.5"
       width="1.5"
       color-interpolation-filters="sRGB"
       y="-0.25"
       x="-0.25">
      <feGaussianBlur
         id="feGaussianBlur4367"
         result="blur"
         stdDeviation="2"
         in="SourceAlpha" />
      <feColorMatrix
         id="feColorMatrix4369"
         values="1 0 0 0 0 0 1 0 0 0 0 0 1 0 0 0 0 0 0.6 0 "
         type="matrix"
         result="bluralpha" />
      <feOffset
         id="feOffset4371"
         result="offsetBlur"
         dy="-4"
         dx="4"
         in="bluralpha" />
      <feMerge
         id="feMerge4373">
        <feMergeNode
           id="feMergeNode4375"
           in="offsetBlur" />
        <feMergeNode
           id="feMergeNode4377"
           in="SourceGraphic" />
      </feMerge>
    </filter>
    <filter
       id="filter4108"
       height="1.5"
       width="1.5"
       y="-.25"
       x="-.25">
      <feGaussianBlur
         id="feGaussianBlur4110"
         result="blur"
         stdDeviation="2"
         in="SourceAlpha" />
      <feColorMatrix
         id="feColorMatrix4112"
         values="1 0 0 0 0 0 1 0 0 0 0 0 1 0 0 0 0 0 0.6 0 "
         type="matrix"
         result="bluralpha" />
      <feOffset
         id="feOffset4114"
         result="offsetBlur"
         dy="-4"
         dx="4"
         in="bluralpha" />
      <feMerge
         id="feMerge4116">
        <feMergeNode
           id="feMergeNode4118"
           in="offsetBlur" />
        <feMergeNode
           id="feMergeNode4120"
           in="SourceGraphic" />
      </feMerge>
    </filter>
  </defs>
  <metadata
     id="metadata7">
    <rdf:RDF>
      <cc:Work
         rdf:about="">
        <dc:format>image/svg+xml</dc:format>
        <dc:type
           rdf:resource="http://purl.org/dc/dcmitype/StillImage" />
        <dc:title />
      </cc:Work>
    </rdf:RDF>
  </metadata>
  <g
     id="layer1"
     font-style="normal"
     font-weight="normal"
     transform="translate(0,-308.2677)">
    <g
       id="flowRoot2985"
       stroke-linejoin="round"
       style="writing-mode:lr-tb;letter-spacing:0px;text-anchor:start;word-spacing:0px;text-align:start;"
       font-family="Impact"
       transform="translate(120.35714,5)"
       line-height="125%"
       stroke="#3f3f3f"
       stroke-linecap="butt"
       stroke-miterlimit="4"
       font-stretch="normal"
       font-size="144px"
       font-variant="normal"
       stroke-width="0.99921262"
       fill="#FFF">
      <g
         id="g3892">
        <path
           inkscape:connector-curvature="0"
           transform="matrix(2.3379398,0,0,2.3379398,-335.2011,-140.44956)"
           d="m 254.39844,274.41201 0,113.83594 -25.875,0 0,-76.85157 -10.33594,76.85157 -18.35156,0 -10.89844,-75.09375 0,75.09375 -25.875,0 0,-113.83594 38.32031,0 c 1.12496,6.84386 2.32027,14.90635 3.58594,24.1875 l 4.07812,28.96875 6.75,-53.15625 z"
           style="font-size:40px;text-align:start;fill:#ffffff;stroke:#3f3f3f;stroke-width:1.71090806;stroke-linecap:butt;stroke-linejoin:round;stroke-miterlimit:4;stroke-dasharray:none;filter:url(#filter4308);font-family:Sans"
           id="path2998" />
        <path
           inkscape:connector-curvature="0"
           transform="matrix(2.3379398,0,0,2.3379398,-335.2011,-140.44956)"
           d="m 290.82031,331.08388 -26.64844,0 0,-6.25781 c 0,-7.21868 0.83203,-12.78508 2.4961,-16.69922 1.66405,-3.91398 5.00389,-7.371 10.01953,-10.37109 5.0156,-2.99991 11.53122,-4.49991 19.54687,-4.5 9.60933,9e-5 16.85151,1.69931 21.72657,5.09766 4.87494,3.39852 7.80462,7.57039 8.78906,12.51562 0.98431,4.94539 1.47649,15.12897 1.47656,30.55078 v 46.82813 h -27.63281 v -8.29688 c -1.73441,3.32813 -3.97269,5.82422 -6.71484,7.48828 -2.74222,1.66406 -6.01175,2.4961 -9.8086,2.4961 -4.96877,0 -9.52736,-1.39453 -13.67578,-4.1836 -4.14844,-2.78905 -6.22266,-8.89452 -6.22266,-18.3164 v -7.66407 c 0,-6.98433 1.10156,-11.74214 3.30469,-14.27343 2.20312,-2.53121 7.66405,-5.48433 16.38281,-8.85938 9.3281,-3.65619 14.32028,-6.11713 14.97657,-7.38281 0.65621,-1.26557 0.98433,-3.84369 0.98437,-7.73438 -4e-5,-4.87492 -0.36332,-8.0507 -1.08984,-9.52734 -0.7266,-1.47648 -1.93363,-2.21476 -3.6211,-2.21484 -1.9219,8e-5 -3.11721,0.62117 -3.58593,1.86328 -0.46878,1.24226 -0.70316,4.46491 -0.70313,9.66797 z m 9,12.79688 c -4.54691,3.32817 -7.18362,6.11723 -7.91015,8.36719 -0.7266,2.25003 -1.08988,5.4844 -1.08985,9.70312 -3e-5,4.82815 0.31638,7.94533 0.94922,9.35156 0.63278,1.40627 1.88669,2.10939 3.76172,2.10938 1.78121,10e-6 2.94137,-0.55077 3.48047,-1.65234 0.53902,-1.10155 0.80855,-3.99608 0.80859,-8.6836 z"
           style="font-size:40px;text-align:start;fill:#ffffff;stroke:#3f3f3f;stroke-width:1.71090806;stroke-linecap:butt;stroke-linejoin:round;stroke-miterlimit:4;stroke-dasharray:none;filter:url(#filter4294);font-family:Sans"
           id="path3000" />
        <path
           inkscape:connector-curvature="0"
           transform="matrix(2.3379398,0,0,2.3379398,-335.2011,-140.44956)"
           d="m 402.54687,294.94326 0,71.85937 c -6e-5,9.70314 -0.22272,15.97267 -0.66796,18.8086 -0.44538,2.83594 -2.02741,5.83593 -4.7461,9 -2.71881,3.16405 -6.50396,5.57811 -11.35547,7.24219 -4.85161,1.66404 -10.95707,2.49607 -18.3164,2.49609 -9.0469,-2e-5 -16.31252,-1.53517 -21.79688,-4.60547 -5.48438,-3.07032 -8.32031,-9.10547 -8.50781,-18.10547 h 27.5625 c -3e-5,4.125 1.49997,6.1875 4.5,6.1875 2.15621,0 3.5859,-0.63281 4.28906,-1.89844 0.70309,-1.26562 1.05465,-3.91405 1.05469,-7.94531 v -7.03125 c -2.43754,2.20314 -5.00394,3.8672 -7.69922,4.99219 -2.69534,1.12501 -5.51956,1.68751 -8.47266,1.6875 -5.10939,10e-6 -9.31642,-1.03124 -12.62109,-3.09375 -3.3047,-2.06248 -5.56641,-4.76951 -6.78516,-8.12109 -1.21875,-3.35154 -1.82812,-8.12107 -1.82812,-14.3086 V 318.2167 c 0,-8.8593 1.59374,-15.23429 4.78125,-19.125 3.18749,-3.89053 8.03905,-5.83585 14.55469,-5.83594 3.56247,9e-5 6.80856,0.72666 9.73828,2.17969 2.92965,1.45321 5.54293,3.6329 7.83984,6.53906 l 2.03906,-7.03125 z m -28.47656,24.75 c -4e-5,-4.26555 -0.24613,-6.9843 -0.73828,-8.15625 -0.49223,-1.1718 -1.58207,-1.75773 -3.26953,-1.75781 -1.64066,8e-5 -2.80082,0.66804 -3.48047,2.0039 -0.67972,1.33602 -1.01956,3.97273 -1.01953,7.91016 v 31.35937 c -3e-5,4.17191 0.25778,6.87894 0.77344,8.1211 0.51559,1.24221 1.59371,1.86331 3.23437,1.86328 1.87496,3e-5 3.09371,-0.74997 3.65625,-2.25 0.56246,-1.49997 0.84371,-4.8984 0.84375,-10.19531 z"
           style="font-size:40px;text-align:start;fill:#ffffff;stroke:#3f3f3f;stroke-width:1.71090806;stroke-linecap:butt;stroke-linejoin:round;stroke-miterlimit:4;stroke-dasharray:none;filter:url(#filter4280);font-family:Sans"
           id="path3002" />
        <path
           inkscape:connector-curvature="0"
           transform="matrix(2.3379398,0,0,2.3379398,-335.2011,-140.44956)"
           d="m 413.65625,274.41201 29.8125,0 c 8.06246,1.1e-4 14.26167,0.63293 18.59766,1.89844 4.33588,1.26573 7.59368,3.09386 9.77343,5.48437 2.17962,2.39073 3.65619,5.28526 4.42969,8.6836 0.77337,3.39853 1.16009,8.66024 1.16016,15.78515 v 9.91406 c -7e-5,7.26569 -0.75007,12.56256 -2.25,15.89063 -1.50007,3.32818 -4.25397,5.88286 -8.26172,7.66406 -4.00787,1.7813 -9.24614,2.67192 -15.71485,2.67188 h -7.94531 v 45.84375 h -29.60156 z m 29.60156,19.47656 0,28.96875 c 0.84372,0.0469 1.57028,0.0704 2.17969,0.0703 2.71871,7e-5 4.60543,-0.6679 5.66016,-2.0039 1.05464,-1.33587 1.58198,-4.11321 1.58203,-8.33203 v -9.35157 c -5e-5,-3.89053 -0.60942,-6.42178 -1.82813,-7.59375 -1.21879,-1.17178 -3.75004,-1.75771 -7.59375,-1.75781 z"
           style="font-size:40px;text-align:start;fill:#ffffff;stroke:#3f3f3f;stroke-width:1.71090806;stroke-linecap:butt;stroke-linejoin:round;stroke-miterlimit:4;stroke-dasharray:none;filter:url(#filter4266);font-family:Sans"
           id="path3004" />
        <rect
           x="605.35712"
           y="299.86218"
           width="29.285715"
           height="93.571426"
           transform="matrix(2.3379398,0,0,2.3379398,-616.58863,-152.13921)"
           style="font-size:40px;text-align:start;fill:#ffffff;stroke:#3f3f3f;stroke-width:1.71090806;stroke-linecap:butt;stroke-linejoin:round;stroke-miterlimit:4;stroke-dasharray:none;filter:url(#filter4252);font-family:Sans"
           id="rect3034" />
        <path
           inkscape:connector-curvature="0"
           transform="matrix(1.9472889,0,0,1.94298,-377.70962,-31.694209)"
           d="m 639.99999,273.61218 c 0,9.96085 -8.15481,18.03572 -18.21428,18.03572 -10.05948,0 -18.21429,-8.07487 -18.21429,-18.03572 0,-9.96085 8.15481,-18.03571 18.21429,-18.03571 10.05947,0 18.21428,8.07486 18.21428,18.03571 z"
           style="font-size:40px;text-align:start;fill:#bc1142;stroke:#3f3f3f;stroke-width:2.05641437;stroke-linecap:butt;stroke-linejoin:round;stroke-miterlimit:4;stroke-dasharray:none;marker-start:none;filter:url(#filter4238);font-family:Sans"
           id="path3804" />
        <path
           inkscape:connector-curvature="0"
           transform="matrix(2.3379398,0,0,2.3379398,-616.58862,-152.1392)"
           d="m 234.64509,280.54575 0,6.32813 -4.88281,0 0,25.29296 -8.22266,0 0,-25.29296 -4.86328,0 0,-6.32813 z"
           style="font-size:40px;text-align:start;stroke:#3f3f3f;stroke-width:1.71090806;stroke-linejoin:round;stroke-miterlimit:4;stroke-dasharray:none;filter:url(#filter4365);font-family:Sans"
           id="path4331" />
        <path
           inkscape:connector-curvature="0"
           transform="matrix(2.3379398,0,0,2.3379398,-616.58862,-152.1392)"
           d="m 244.17634,280.54575 0,7.10938 c 0.67707,-0.62498 1.40949,-1.09373 2.19726,-1.40625 0.78775,-0.31248 1.63085,-0.46873 2.5293,-0.46875 1.38019,2e-5 2.55532,0.35158 3.52539,1.05468 0.97003,0.70315 1.56248,1.5137 1.77734,2.43164 0.21483,0.91799 0.32225,2.59443 0.32227,5.0293 v 17.87109 h -7.89063 v -18.24218 c -1e-5,-1.5104 -0.0749,-2.48045 -0.22461,-2.91016 -0.14975,-0.42966 -0.48503,-0.64451 -1.00586,-0.64453 -0.48178,2e-5 -0.8073,0.22138 -0.97656,0.66406 -0.16928,0.44273 -0.25391,1.32164 -0.2539,2.63672 v 18.49609 h -7.89063 v -31.62109 z"
           style="font-size:40px;text-align:start;stroke:#3f3f3f;stroke-width:1.71090806;stroke-linejoin:round;stroke-miterlimit:4;stroke-dasharray:none;filter:url(#filter4351);font-family:Sans"
           id="path4333" />
        <path
           inkscape:connector-curvature="0"
           transform="matrix(2.3379398,0,0,2.3379398,-616.58862,-152.1392)"
           d="m 275.0943,299.66684 -10.21484,0 0,5.60547 c -10e-6,1.17188 0.0846,1.92709 0.25391,2.26563 0.16926,0.33854 0.49478,0.50782 0.97656,0.50781 0.59895,10e-6 0.99934,-0.2246 1.20117,-0.67383 0.20181,-0.44921 0.30272,-1.31835 0.30273,-2.60742 v -3.41797 h 7.48047 v 1.91406 c -2e-5,1.60157 -0.10093,2.83204 -0.30273,3.69141 -0.20184,0.85938 -0.67385,1.77735 -1.41602,2.75391 -0.7422,0.97656 -1.68295,1.70898 -2.82226,2.19726 -1.13934,0.48828 -2.56837,0.73242 -4.28711,0.73242 -1.66668,0 -3.13803,-0.24088 -4.41406,-0.72265 -1.27605,-0.48177 -2.26889,-1.14258 -2.97852,-1.98242 -0.70964,-0.83984 -1.20117,-1.76432 -1.47461,-2.77344 -0.27344,-1.00911 -0.41016,-2.47721 -0.41015,-4.4043 v -7.55859 c -10e-6,-2.26561 0.30598,-4.05271 0.91796,-5.36133 0.61198,-1.30857 1.61458,-2.31117 3.00782,-3.00781 1.39322,-0.69659 2.99478,-1.0449 4.80468,-1.04492 2.21353,2e-5 4.0397,0.41994 5.47852,1.25976 1.43878,0.83987 2.4479,1.95315 3.02734,3.33985 0.57941,1.38673 0.86912,3.3366 0.86914,5.8496 z m -7.91015,-4.21875 0,-1.89453 c -10e-6,-1.34112 -0.0716,-2.20701 -0.21485,-2.59765 -0.14324,-0.39061 -0.4362,-0.58592 -0.8789,-0.58594 -0.54689,2e-5 -0.88543,0.16604 -1.01563,0.49805 -0.13021,0.33205 -0.19532,1.22723 -0.19531,2.68554 v 1.89453 z"
           style="font-size:40px;text-align:start;stroke:#3f3f3f;stroke-width:1.71090806;stroke-linejoin:round;stroke-miterlimit:4;stroke-dasharray:none;filter:url(#filter4337);font-family:Sans"
           id="path4335" />
        <g
           id="flowRoot3061"
           style="font-size:40px;font-style:normal;font-weight:normal;line-height:125%;filter:url(#filter4108);font-family:Sans"
           transform="translate(-33.214283,220.41056)">
          <path
             id="path3087"
             style="fill:#3f3f3f;fill-opacity:1;stroke:#3f3f3f;stroke-opacity:1;stroke-width:4;stroke-miterlimit:4;stroke-dasharray:none"
             d="m 847.52734,584.67294 0,-25.25391 -9.43359,0 0,-3.3789 22.69531,0 0,3.3789 -9.47265,0 0,25.25391 z" />
          <path
             id="path3089"
             style="fill:#3f3f3f;fill-opacity:1;stroke:#3f3f3f;stroke-opacity:1;stroke-width:4;stroke-miterlimit:4;stroke-dasharray:none"
             d="m 864.57812,584.67294 0,-28.63281 5.70313,0 6.77734,20.27343 c 0.62499,1.88803 1.08072,3.30079 1.36719,4.23829 0.3255,-1.04167 0.83332,-2.57161 1.52344,-4.58985 l 6.85547,-19.92187 5.09765,0 0,28.63281 -3.65234,0 0,-23.96484 -8.32031,23.96484 -3.41797,0 -8.28125,-24.375 0,24.375 z" />
        </g>
      </g>
    </g>
    <flowRoot
       id="flowRoot2993"
       style="letter-spacing:0px;word-spacing:0px;"
       xml:space="preserve"
       font-size="40px"
       line-height="125%"
       font-family="Sans"
       fill="#000000"><flowRegion
         id="flowRegion2995"><rect
           id="rect2997"
           y="240.93361"
           width="297.14285"
           x="45.714287"
           height="45.714287" /></flowRegion><flowPara
         id="flowPara2999" /></flowRoot>  </g>
</svg>
